<?xml version="1.0" encoding="UTF-8" standalone="no"?>
<svg xmlns="http://www.w3.org/2000/svg" version="1.1" width="24" height="24">
    <g transform="translate(0,-1028.3622)">
        <path d="M 4 2 C 2.8919904 2 2 2.8919904 2 4 L 2 20 C 2 21.10801 2.8919904 22 4 22 L 20 22 C 21.10801 22 22 21.10801 22 20 L 22 4 C 22 2.8919904 21.10801 2 20 2 L 4 2 z M 5 5 C 16 5 19 8 19 19 L 17 19 C 17 10 14 7 5 7 L 5 5 z M 5 11 C 12 11 13 12 13 19 L 11 19 C 11 14 10 13 5 13 L 5 11 z M 6.5 16 C 7.3284271 16 8 16.671573 8 17.5 C 8 18.328427 7.3284271 19 6.5 19 C 5.6715729 19 5 18.328427 5 17.5 C 5 16.671573 5.6715729 16 6.5 16 z " fill="#000" stroke="none" transform="translate(0,1028.3622)" />
    </g>
</svg>
