<?xml version="1.0" encoding="UTF-8" standalone="no"?>
<svg xmlns="http://www.w3.org/2000/svg" version="1.1" width="24" height="24">
    <g transform="translate(0,-1028.3622)">
        <g transform="matrix(1.428552,0,0,-1.4999813,-469.42204,1858.3953)">
            <rect x="318.28" y="538.325" width="0" height="11" fill="#7447b9" stroke="none" />
            <rect x="313.728" y="540.844" width="0" height="11" fill="#7447b9" stroke="none" />
            <rect x="309.22" y="528.425" width="0" height="11" fill="#7447b9" stroke="none" />
            <path d="m 329.9999,537.3623 0,16 10,0 0,-0.01 0.008,0.01 3.99219,-3.9922 0,-0.008 0,-12 -14,0 z m 0.70003,0.66647 12.60017,0 0,11.33348 -3.50005,0 0,3.33337 -9.10012,0 z" fill="#7447b9" stroke="none" />
        </g>
        <g transform="matrix(0.75,0,0,0.75,-240.75,631.34055)">
            <rect x="273.382" y="518.479" width="0" height="14.6681" fill="#7447b9" stroke="none" />
            <rect x="280.342" y="541.049" width="0" height="14.6681" fill="#7447b9" stroke="none" />
            <rect x="282.156" y="539.989" width="0" height="14.6681" fill="#7447b9" stroke="none" />
            <path d="M 11,3 3,4.3333333 3,17.666667 11,19 19,17.666667 19,4.3333333 Z M 11,4.3333333 17.666667,5.6666667 11.021045,7.0108923 4.3333333,5.6666667 Z M 17.666667,7 l 0,4 L 11,12.333333 4.3333333,11 4.3122885,7.0513199 11.021045,8.4107444 Z m 0,5.333333 0,4 L 11,17.666667 4.3333333,16.333333 l 0,-4 L 11,13.666667 Z" fill="#7447b9" stroke="none" transform="translate(326,534.3622)" />
        </g>
    </g>
</svg>
