<?xml version="1.0" encoding="UTF-8" standalone="no"?>
<svg xmlns="http://www.w3.org/2000/svg" version="1.1" width="24" height="24">
    <g transform="translate(0,-1028.3622)">
        <path d="M 10,6 8,8 1,8 1,21 23,21 23,6 Z m -5,3.9 14,0 0,9.1 -14,0 z m 1,1.1 0,1 1,0 0,-1 z m 2,-0.1 0,7.1 8,0 0,-7.1 z m 9,0.1 0,1 1,0 0,-1 z m -11,2 0,1 1,0 0,-1 z m 5,-1 3,2.5 -3,2.5 z m 6,1 0,1 1,0 0,-1 z m -11,2 0,1 1,0 0,-1 z m 11,0 0,1 1,0 0,-1 z m -11,2 0,1 1,0 0,-1 z m 11,0 0,1 1,0 0,-1 z" fill="#808080" stroke="none" transform="translate(0,1028.3622)" />
        <path d="M 2 3 L 2 4 L 2 5 L 3 5 L 12 5 L 22 5 L 22 4 L 12 4 L 11 3 L 2 3 z " fill="#808080" stroke="none" transform="translate(0,1028.3622)" />
        <path d="M 2 4 L 2 7 L 2 8 L 8 8 L 10 6 L 22 6 L 22 5 L 12 5 L 11 4 L 2 4 z " fill="#808080" fill-opacity="0.50196081" stroke="none" transform="translate(0,1028.3622)" />
        <rect x="6.83655" y="1033.66" width="0" height="7.34529" fill="#6c7a89" stroke="none" />
        <rect x="2.87729" y="1035.35" width="0" height="7.34529" fill="#6c7a89" stroke="none" />
        <rect x="-1.04351" y="1027.05" width="0" height="7.34529" fill="#6c7a89" stroke="none" />
        <rect x="-0.309394" y="1035.23" width="0" height="7.34529" fill="#e00a5e" stroke="none" />
        <rect x="-4.26866" y="1036.91" width="0" height="7.34529" fill="#e00a5e" stroke="none" />
        <rect x="-8.18946" y="1028.62" width="0" height="7.34529" fill="#e00a5e" stroke="none" />
    </g>
</svg>
