<?xml version="1.0" encoding="UTF-8" standalone="no"?>
<svg xmlns="http://www.w3.org/2000/svg" version="1.1" width="24" height="24">
    <g transform="translate(0,-1028.3622)">
        <path d="m 6.9892776,1033.0596 c -0.1978281,0.012 -0.3489055,0.051 -0.6484375,0.168 -1.8055131,0.7541 -0.6875385,3.2324 1.8574219,5.084 -0.1660632,1.6502 -0.4408812,3.5237 -0.7949219,5.0879 -1.9873445,1.259 -3.1689213,3.0489 -2.4960937,3.9043 0.1212913,0.1521 0.2489007,0.228 0.3769531,0.2715 l -0.00391,0.017 c 0.1008016,0.056 0.185503,0.076 0.265625,0.076 l 0.00391,-0.029 c 0.065345,0.012 0.1267076,0.036 0.1992187,0.027 0.1259694,-0.015 0.2626094,-0.06 0.4042969,-0.1309 0.8501253,-0.4274 1.9215896,-1.7884 2.4882813,-3.166 1.7384486,-0.9872 4.0707096,-2.1142 6.1113286,-3.0215 1.090712,0.4108 2.709783,0.9291 3.605469,0.7617 0.167036,0 0.734663,-0.4826 0.890625,-0.8711 l 0.02148,-0.096 c 0.0936,-0.5913 -0.363095,-1.4048 -1.095703,-1.5644 -1.164721,-0.26 -2.888998,0.3641 -3.703125,0.6425 -1.66358,-0.7016 -3.330304,-1.5765 -4.8925786,-2.5683 -0.11039,-2.2208 -1.2573367,-4.4458 -2.3925782,-4.5742 -0.062278,-0.012 -0.1313232,-0.012 -0.1972656,-0.012 l 0,-0.01 z m -0.1386719,0.1387 c 0.1586845,-0.01 0.3024132,0.016 0.4316407,0.072 0.7666509,0.3314 1.0330762,1.7513 1.0585937,3.5937 -2.1523483,-1.5053 -3.4154107,-2.9551 -2.0117187,-3.5371 0.1900425,-0.079 0.3627999,-0.1203 0.5214843,-0.1289 z m 2.65625,5.7441 c 1.1682323,0.7506 2.2781583,1.4015 3.5917973,1.9258 -1.364219,0.6073 -2.805016,1.3831 -4.1152348,2.1446 0.256234,-2.0226 0.3100099,-2.5227 0.5234375,-4.0704 z m 8.6718753,1.4141 c 0.223784,-0.01 0.43766,0.01 0.617188,0.057 0.30465,0.087 0.389414,0.3854 0.404296,0.7403 -0.288446,0.5335 -2.415138,0.1978 -3.310546,-0.3672 0.04542,-0.019 0.111932,-0.062 0.15625,-0.08 0.244808,-0.089 0.717803,-0.1795 1.449218,-0.2812 0.225176,-0.033 0.459811,-0.061 0.683594,-0.068 z m -11.089844,4.8945 0.00781,0.01 c -0.4851591,1.3605 -1.0918652,2.3049 -1.6015625,2.3496 -0.059169,-0.01 -0.118565,-0.026 -0.1777344,-0.055 -0.031262,-0.022 -0.063927,-0.044 -0.087891,-0.066 -0.7380413,-0.6985 0.9504909,-1.6891 1.859375,-2.2344 z" fill="#e71919" stroke="none" />
        <g transform="matrix(1.428552,0,0,-1.4999813,-469.42204,1858.3953)">
            <rect x="318.28" y="538.325" width="0" height="11" fill="#e71919" stroke="none" />
            <rect x="313.728" y="540.844" width="0" height="11" fill="#e71919" stroke="none" />
            <rect x="309.22" y="528.425" width="0" height="11" fill="#e71919" stroke="none" />
            <path d="m 329.9999,537.3623 0,16 10,0 0,-0.01 0.008,0.01 3.99219,-3.9922 0,-0.008 0,-12 -14,0 z m 0.70003,0.66647 12.60017,0 0,11.33348 -3.50005,0 0,3.33337 -9.10012,0 z" fill="#e71919" stroke="none" />
        </g>
        <rect x="-51.6182" y="1013.48" width="0" height="14.6681" fill="#e71919" stroke="none" />
        <rect x="-44.6576" y="1036.05" width="0" height="14.6681" fill="#e71919" stroke="none" />
        <rect x="-42.8443" y="1034.99" width="0" height="14.6681" fill="#e71919" stroke="none" />
    </g>
</svg>
