<?xml version="1.0" encoding="UTF-8" standalone="no"?>
<svg xmlns="http://www.w3.org/2000/svg" version="1.1" width="24" height="24">
    <g transform="translate(0,-1028.3622)">
        <g transform="matrix(1.428552,0,0,-1.4999813,-469.42204,1858.3953)">
            <rect x="318.28" y="538.325" width="0" height="11" fill="#e5641b" stroke="none" />
            <rect x="313.728" y="540.844" width="0" height="11" fill="#e5641b" stroke="none" />
            <rect x="309.22" y="528.425" width="0" height="11" fill="#e5641b" stroke="none" />
            <path d="m 329.9999,537.3623 0,16 10,0 0,-0.01 0.008,0.01 3.99219,-3.9922 0,-0.008 0,-12 -14,0 z m 0.70003,0.66647 12.60017,0 0,11.33348 -3.50005,0 0,3.33337 -9.10012,0 z" fill="#e5641b" stroke="none" />
        </g>
        <path d="m 11,1035.3622 -6,0 0,10.0001 5,0 -3.4e-5,1 -1,0 0,0.9999 6,0 0,-0.9999 -1,0 3.4e-5,-1 5,0 0,-10.0001 -6,0 c 0,-1 0,-1 -1,-1 -1,0 -1,0 -1,1 z m -5.000034,1 12,0 0,8 -12,0 z m 5,9 2,0 -3.4e-5,1 -2,0 z" fill="#e5641b" stroke="none" />
        <path d="m 13.02637,1037.9141 a 2.7500576,2.7500576 0 0 0 -1.02715,-0.2014 2.7500576,2.7500576 0 0 0 -2.7489561,2.749 2.7500576,2.7500576 0 0 0 2.7489561,2.7505 2.7500576,2.7500576 0 0 0 2.750516,-2.7505 2.7500576,2.7500576 0 0 0 -0.03122,-0.3934 l -2.744273,0.4449 1.052127,-2.5991 z" fill="#e5641b" stroke="none" />
        <path d="m 13.621806,1037.4515 -1.052127,2.5991 2.744273,-0.4449 a 2.7500576,2.7500576 0 0 0 -1.692146,-2.1542 z" fill="#e5641b" fill-opacity="0.50196081" stroke="none" />
    </g>
</svg>
