<?xml version="1.0" encoding="UTF-8" standalone="no"?>
<svg xmlns="http://www.w3.org/2000/svg" version="1.1" width="24" height="24">
    <g transform="translate(0,-1028.3622)">
        <g transform="matrix(1.428552,0,0,-1.4999813,-469.42204,1858.3953)">
            <rect x="318.28" y="538.325" width="0" height="11" fill="#2f3dd1" stroke="none" />
            <rect x="313.728" y="540.844" width="0" height="11" fill="#2f3dd1" stroke="none" />
            <rect x="309.22" y="528.425" width="0" height="11" fill="#2f3dd1" stroke="none" />
            <path d="m 329.9999,537.3623 0,16 10,0 0,-0.01 0.008,0.01 3.99219,-3.9922 0,-0.008 0,-12 -14,0 z m 0.70003,0.66647 12.60017,0 0,11.33348 -3.50005,0 0,3.33337 -9.10012,0 z" fill="#2f3dd1" stroke="none" />
        </g>
        <rect x="5" y="1032.36" width="9" height="1" fill="#2f3dd1" stroke="none" />
        <rect x="5" y="1035.36" width="14" height="1" fill="#2f3dd1" stroke="none" />
        <rect x="5" y="1038.36" width="14" height="1" fill="#2f3dd1" stroke="none" />
        <rect x="5" y="1041.36" width="14" height="1" fill="#2f3dd1" stroke="none" />
        <rect x="5" y="1044.36" width="14" height="1" fill="#2f3dd1" stroke="none" />
        <rect x="5" y="1047.36" width="14" height="1" fill="#2f3dd1" stroke="none" />
    </g>
</svg>
