<?xml version="1.0" encoding="UTF-8" standalone="no"?>
<svg xmlns="http://www.w3.org/2000/svg" version="1.1" width="24" height="24">
    <g transform="translate(0,-1028.3622)">
        <g transform="matrix(1.428552,0,0,-1.4999813,-469.42204,1858.3953)">
            <rect x="318.28" y="538.325" width="0" height="11" fill="#40c0a0" stroke="none" />
            <rect x="313.728" y="540.844" width="0" height="11" fill="#40c0a0" stroke="none" />
            <rect x="309.22" y="528.425" width="0" height="11" fill="#40c0a0" stroke="none" />
            <path d="m 329.9999,537.3623 0,16 10,0 0,-0.01 0.008,0.01 3.99219,-3.9922 0,-0.008 0,-12 -14,0 z m 0.70003,0.66647 12.60017,0 0,11.33348 -3.50005,0 0,3.33337 -9.10012,0 z" fill="#40c0a0" stroke="none" />
        </g>
        <path d="m 5.9433347,1040.3622 3.4615422,1.4236 -0.2535214,0.7508 -4.2123555,-1.7844 0,-0.78 4.2123555,-1.7844 0.2535214,0.7508 -3.4615422,1.4236 z" fill="#40c0a0" stroke="none" />
        <path d="m 10.818627,1045.0816 -0.9263283,0 3.3055293,-9.4388 0.906826,0 -3.286027,9.4388 z" fill="#40c0a0" stroke="none" />
        <path d="m 14.595,1038.9386 0.253521,-0.7508 4.212355,1.7844 0,0.78 -4.212355,1.7844 -0.253521,-0.7508 3.461542,-1.4236 -3.461542,-1.4236 z" fill="#40c0a0" stroke="none" />
    </g>
</svg>
