<?xml version="1.0" encoding="UTF-8" standalone="no"?>
<svg xmlns="http://www.w3.org/2000/svg" version="1.1" width="24" height="24">
    <g transform="translate(0,-1028.3622)">
        <path d="m 9,1031.3622 c -0.2895016,0 -0.4355055,0.075 -0.5664062,0.2441 -0.139798,0.1674 -0.2527912,0.4196 -0.4335938,0.7559 l -1,2 -2,0 c 0,-0.554 -0.446,-1 -1,-1 -0.554,0 -1,0.446 -1,1 l -1,0 c -0.554,0 -1,0.446 -1,1 l 0,11 c 0,0.554 0.446,1 1,1 l 20,0 c 0.554,0 1,-0.446 1,-1 l 0,-11 c 0,-0.554 -0.446,-1 -1,-1 l -5,0 -1,-2 c -0.180803,-0.3364 -0.293796,-0.5885 -0.433594,-0.7559 -0.130901,-0.169 -0.276904,-0.2441 -0.566406,-0.2441 l -6,0 z m 3,4 a 5,5 0 0 1 5,5 5,5 0 0 1 -5,5 5,5 0 0 1 -5,-5 5,5 0 0 1 5,-5 z m 7,1 2,0 0,1 -2,0 0,-1 z" fill="#000" stroke="none" />
        <circle cx="12" cy="1040.36" r="3" fill="#000" stroke="none" />
    </g>
</svg>
