<?xml version="1.0" encoding="UTF-8" standalone="no"?>
<svg xmlns="http://www.w3.org/2000/svg" version="1.1" width="24" height="24">
    <g transform="translate(0,-1028.3622)">
        <path d="M 5 5 C 3.892 5 3 5.892 3 7 L 3 18 C 3 19.108 3.892 20 5 20 L 19 20 C 20.108 20 21 19.108 21 18 L 21 7 C 21 5.892 20.108 5 19 5 L 5 5 z M 10 7 L 14 7 L 14 9 L 17 9 L 17 10 L 19 10 L 19 18 L 17 18 L 17 15 L 16 15 L 16 18 L 14 18 L 14 15 L 13 15 L 13 18 L 11 18 L 11 15 L 10 15 L 10 18 L 8 18 L 8 15 L 7 15 L 7 18 L 5 18 L 5 10 L 7 10 L 7 9 L 10 9 L 10 7 z " fill="#000" stroke="none" transform="translate(0,1028.3622)" />
    </g>
</svg>
