<?xml version="1.0" encoding="UTF-8" standalone="no"?>
<svg xmlns="http://www.w3.org/2000/svg" version="1.1" width="24" height="24">
    <g transform="translate(0,-1028.3622)">
        <path d="M 6 7 A 5 5 0 0 0 1 12 A 5 5 0 0 0 6 17 A 5 5 0 0 0 11 12 L 13 12 A 5 5 0 0 0 18 17 A 5 5 0 0 0 23 12 A 5 5 0 0 0 18 7 L 7 7 L 6 7 z M 6 9 A 1 1 0 0 1 7 10 A 1 1 0 0 1 6 11 A 1 1 0 0 1 5 10 A 1 1 0 0 1 6 9 z M 17 9 L 19 9 L 19 11 L 21 11 L 21 13 L 19 13 L 19 15 L 17 15 L 17 13 L 15 13 L 15 12 L 15 11 L 17 11 L 17 9 z M 4 11 A 1 1 0 0 1 5 12 A 1 1 0 0 1 4 13 A 1 1 0 0 1 3 12 A 1 1 0 0 1 4 11 z M 8 11 A 1 1 0 0 1 9 12 A 1 1 0 0 1 8 13 A 1 1 0 0 1 7 12 A 1 1 0 0 1 8 11 z M 6 13 A 1 1 0 0 1 7 14 A 1 1 0 0 1 6 15 A 1 1 0 0 1 5 14 A 1 1 0 0 1 6 13 z " fill="#000" stroke="none" transform="translate(0,1028.3622)" />
    </g>
</svg>
