<?xml version="1.0" encoding="UTF-8" standalone="no"?>
<svg xmlns="http://www.w3.org/2000/svg" version="1.1" width="24" height="24">
    <g transform="translate(0,-1028.3622)">
        <path d="m 11,1046.3622 0,2 -9,0 0,2 9,0 2,0 9,0 0,-2 -9,0 0,-2 z" fill="#000" stroke="none" />
        <path d="m 4,1042.3622 0,3 16,0 0,-3 z m 1,1 12,0 0,1 -12,0 z m 13.5,0 c 0.276142,0 0.5,0.2239 0.5,0.5 0,0.2761 -0.223858,0.5 -0.5,0.5 -0.276142,0 -0.5,-0.2239 -0.5,-0.5 0,-0.2761 0.223858,-0.5 0.5,-0.5 z" fill="#000" stroke="none" />
        <path d="m 4,1038.3622 0,3 16,0 0,-3 z m 1,1 12,0 0,1 -12,0 z m 13.5,0 c 0.276142,0 0.5,0.2239 0.5,0.5 0,0.2761 -0.223858,0.5 -0.5,0.5 -0.276142,0 -0.5,-0.2239 -0.5,-0.5 0,-0.2761 0.223858,-0.5 0.5,-0.5 z" fill="#000" stroke="none" />
        <path d="m 4,1034.3622 0,3 16,0 0,-3 z m 1,1 12,0 0,1 -12,0 z m 13.5,0 c 0.276142,0 0.5,0.2239 0.5,0.5 0,0.2761 -0.223858,0.5 -0.5,0.5 -0.276142,0 -0.5,-0.2239 -0.5,-0.5 0,-0.2761 0.223858,-0.5 0.5,-0.5 z" fill="#000" stroke="none" />
        <path d="m 4,1030.3622 0,3 16,0 0,-3 z m 1,1 12,0 0,1 -12,0 z m 13.5,0 c 0.276142,0 0.5,0.2239 0.5,0.5 0,0.2761 -0.223858,0.5 -0.5,0.5 -0.276142,0 -0.5,-0.2239 -0.5,-0.5 0,-0.2761 0.223858,-0.5 0.5,-0.5 z" fill="#000" stroke="none" />
    </g>
</svg>
