<?xml version="1.0" encoding="UTF-8" standalone="no"?>
<svg xmlns="http://www.w3.org/2000/svg" version="1.1" width="24" height="24">
    <g transform="translate(0,-1028.3622)">
        <path d="M 12 2 L 7 7 L 4 7 C 3.446 7 3 7.446 3 8 L 3 16 C 3 16.554 3.446 17 4 17 L 7 17 L 12 22 L 13 22 L 13 14.757812 C 13.73336 13.984612 14.107422 12.9935 14.107422 12 C 14.107422 11.0064 13.73336 10.015388 13 9.2421875 L 13 2 L 12 2 z M 18.451172 3.4921875 L 17.037109 4.90625 C 20.954481 8.82355 20.954481 15.17645 17.037109 19.09375 L 18.451172 20.507812 C 20.80152 18.157412 21.980469 15.0805 21.980469 12 C 21.980469 8.9194 20.80152 5.8425875 18.451172 3.4921875 z M 15.921875 6.3222656 L 14.498047 7.7460938 C 16.84847 10.096494 16.84847 13.903506 14.498047 16.253906 L 15.921875 17.677734 C 17.488823 16.110834 18.269531 14.0537 18.269531 12 C 18.269531 9.9462 17.488823 7.8891656 15.921875 6.3222656 z " fill="#000" stroke="none" transform="translate(0,1028.3622)" />
    </g>
</svg>
