<?xml version="1.0" encoding="UTF-8" standalone="no"?>
<svg xmlns="http://www.w3.org/2000/svg" version="1.1" width="24" height="24">
    <g transform="translate(0,-1028.3622)">
        <path d="m 12,1032.5713 c -4.090026,0 -8.1758701,1.5646 -11.29645407,4.6851 l 1.87877877,1.8788 c 5.200973,-5.201 13.6343773,-5.201 18.8353503,0 l 1.878779,-1.8788 C 20.17587,1034.1359 16.090026,1032.5713 12,1032.5713 Z" opacity="0.9" fill="#000" stroke="none" />
        <path d="m 12,1037.499 c -2.7266853,0 -5.4585075,1.0351 -7.5388967,3.1155 l 1.8906697,1.8907 c 3.1205838,-3.1206 8.17587,-3.1206 11.296454,0 l 1.890669,-1.8907 C 17.458507,1038.5341 14.726682,1037.499 12,1037.499 Z" opacity="0.9" fill="#000" stroke="none" />
        <path d="m 12,1043.0258 c -1.363341,0 -2.7292537,0.5175 -3.7694483,1.5577 L 12,1048.353 l 3.769448,-3.7695 C 14.729253,1043.5433 13.363341,1043.0258 12,1043.0258 Z" opacity="0.9" fill="#000" stroke="none" />
    </g>
</svg>
