<?xml version="1.0" encoding="UTF-8" standalone="no"?>
<svg xmlns="http://www.w3.org/2000/svg" version="1.1" width="24" height="24">
    <g transform="translate(0,-1028.3622)">
        <path d="m 12,1029.3622 -1.222034,3.6678 0,0.53 A 6.9136105,6.9136105 0 0 1 12,1033.4486 a 6.9136105,6.9136105 0 0 1 1.222034,0.1148 l 0,-0.5334 L 12,1029.3622 Z m -4.2096058,0.8372 0.2751266,3.8568 0.2008593,0.4862 a 6.9136105,6.9136105 0 0 1 2.2617769,-0.9267 l -0.204235,-0.4945 -2.5335278,-2.9218 z m 8.4192118,0 -2.531841,2.9201 -0.204235,0.4928 a 6.9136105,6.9136105 0 0 1 2.256714,0.9368 l 0.205923,-0.4945 0.273439,-3.8552 z m -11.987418,2.385 1.7284026,3.4568 0.3747124,0.3747 a 6.9136105,6.9136105 0 0 1 1.7334662,-1.7233 l -0.3797759,-0.3798 -3.4568053,-1.7284 z m 15.555624,0 -3.456806,1.7284 -0.374712,0.3747 a 6.9136105,6.9136105 0 0 1 1.723339,1.7335 l 0.379776,-0.3798 1.728403,-3.4568 z m -17.940617,3.5682 2.9200551,2.5319 0.4928649,0.2042 a 6.9136105,6.9136105 0 0 1 0.9367807,-2.2567 l -0.4945527,-0.2043 -3.855148,-0.2751 z m 20.32561,0 -3.856836,0.2751 -0.486113,0.2009 a 6.9136105,6.9136105 0 0 1 0.926653,2.2618 l 0.494552,-0.2043 2.921744,-2.5335 z m -17.4950132,2.9876 -3.66779185,1.222 3.66779185,1.222 0.5299984,0 a 6.9136105,6.9136105 0 0 1 -0.1114009,-1.222 6.9136105,6.9136105 0 0 1 0.1147768,-1.222 l -0.5333743,0 z m 14.1344182,0 a 6.9136105,6.9136105 0 0 1 0.1114,1.222 6.9136105,6.9136105 0 0 1 -0.114776,1.222 l 0.533374,0 3.667792,-1.222 -3.667792,-1.222 -0.529998,0 z m -13.5487192,2.6939 -0.4945527,0.2042 -2.9217431,2.5335 3.8568359,-0.2751 0.4861132,-0.2009 a 6.9136105,6.9136105 0 0 1 -0.9266533,-2.2617 z m 13.4963942,0 a 6.9136105,6.9136105 0 0 1 -0.936781,2.2567 l 0.494553,0.2042 3.855148,0.2752 -2.920056,-2.5319 -0.492864,-0.2042 z m -12.4195184,2.4676 -0.379776,0.3798 -1.7284026,3.4568 3.4568053,-1.7284 0.3747123,-0.3747 a 6.9136105,6.9136105 0 0 1 -1.723339,-1.7335 z m 11.3443294,0.01 a 6.9136105,6.9136105 0 0 1 -1.733465,1.7234 l 0.379775,0.3797 3.456806,1.7284 -1.728403,-3.4568 -0.374713,-0.3747 z m -9.4049401,1.8668 -0.205923,0.4946 -0.2734387,3.8551 2.5318398,-2.92 0.204235,-0.4929 a 6.9136105,6.9136105 0 0 1 -2.2567131,-0.9368 z m 7.4638631,0.01 a 6.9136105,6.9136105 0 0 1 -2.261776,0.9266 l 0.204235,0.4946 2.533528,2.9217 -0.275127,-3.8568 -0.20086,-0.4861 z m -4.955653,0.9789 0,0.5334 1.222034,3.6678 1.222034,-3.6678 0,-0.53 A 6.9136105,6.9136105 0 0 1 12,1047.2758 6.9136105,6.9136105 0 0 1 10.777966,1047.161 Z" fill="#000" stroke="none" />
        <circle cx="12" cy="1040.36" r="6.04941" fill="#000" stroke="none" />
    </g>
</svg>
