<?xml version="1.0" encoding="UTF-8" standalone="no"?>
<svg xmlns="http://www.w3.org/2000/svg" version="1.1" width="24" height="24">
    <g transform="translate(0,-1028.3622)">
        <path d="M 12 3 A 9 9 0 0 0 3 12 A 9 9 0 0 0 12 21 A 9 9 0 0 0 21 12 A 9 9 0 0 0 12 3 z M 11.996094 6.9179688 C 12.313476 6.9179688 12.583008 7.0293063 12.802734 7.2539062 C 13.022461 7.4736396 13.130859 7.7402677 13.130859 8.0527344 C 13.130859 8.3652677 13.019531 8.6318292 12.794922 8.8515625 C 12.575195 9.0712958 12.308594 9.1796875 11.996094 9.1796875 C 11.683594 9.1796875 11.416992 9.0712958 11.197266 8.8515625 C 10.977539 8.6318292 10.869141 8.3652677 10.869141 8.0527344 C 10.869141 7.7402677 10.977539 7.4736396 11.197266 7.2539062 C 11.416992 7.0293063 11.683594 6.9179688 11.996094 6.9179688 z M 10 10 L 13 10 L 13 15 C 13 16 13 16 13.849609 16 L 13.849609 17 L 10.150391 17 L 10.150391 16 C 11 16 11 16.0005 11 15.0625 L 11 12 C 11 11 11 11 10 11 L 10 10 z " fill="#000" stroke="none" transform="translate(0,1028.3622)" />
    </g>
</svg>
