<?xml version="1.0" encoding="UTF-8" standalone="no"?>
<svg xmlns="http://www.w3.org/2000/svg" version="1.1" width="24" height="24">
    <g transform="translate(0,-1028.3622)">
        <path d="M 8.8183594 10.765625 C 8.0515021 10.765625 7.2848713 11.058884 6.6972656 11.646484 L 3.1621094 15.181641 C 2.1083496 16.23539 2.0058378 17.862242 2.8417969 19.035156 L 4.3300781 17.546875 C 4.2460471 17.216724 4.316837 16.85508 4.5761719 16.595703 L 8.1113281 13.060547 C 8.3709476 12.800952 8.7320724 12.729961 9.0625 12.814453 L 10.548828 11.328125 C 10.030194 10.95882 9.4263069 10.765625 8.8183594 10.765625 z M 12.671875 13.451172 L 11.185547 14.9375 C 11.270047 15.267931 11.199073 15.629077 10.939453 15.888672 L 7.4042969 19.423828 C 7.144962 19.683138 6.783265 19.753945 6.453125 19.669922 L 4.9648438 21.158203 C 6.1377657 21.994289 7.7645474 21.893645 8.8183594 20.839844 L 12.353516 17.302734 C 13.406962 16.249298 13.507024 14.623993 12.671875 13.451172 z " fill="#000" stroke="none" transform="translate(0,1028.3622)" />
        <path d="M 17.302734 2.2792969 C 16.535877 2.2792969 15.769246 2.5745094 15.181641 3.1621094 L 11.646484 6.6972656 C 10.593037 7.7507019 10.492975 9.3759352 11.328125 10.548828 L 12.814453 9.0625 C 12.729953 8.7320901 12.800927 8.3709893 13.060547 8.1113281 L 16.595703 4.5761719 C 16.855038 4.3168616 17.216735 4.2460551 17.546875 4.3300781 L 19.035156 2.8417969 C 18.516294 2.4719954 17.911091 2.2792969 17.302734 2.2792969 z M 21.158203 4.9648438 L 19.669922 6.453125 C 19.753953 6.7832694 19.683163 7.1449866 19.423828 7.4042969 L 15.888672 10.939453 C 15.629052 11.199048 15.267927 11.270039 14.9375 11.185547 L 13.451172 12.671875 C 14.624004 13.507016 16.249287 13.406952 17.302734 12.353516 L 20.837891 8.8183594 C 21.89165 7.7646099 21.994162 6.1377416 21.158203 4.9648438 z " fill="#000" stroke="none" transform="translate(0,1028.3622)" />
        <rect x="-731.662" y="743.132" width="9" height="2" rx="1" ry="1" fill="#000" stroke="none" transform="matrix(0.70710678,-0.70710678,0.70710678,0.70710678,0,0)" />
        <rect x="-719.662" y="743.132" width="7" height="2" rx="1" ry="1" fill="#000" stroke="none" transform="matrix(0.70710678,-0.70710678,0.70710678,0.70710678,0,0)" />
        <rect x="-741.662" y="743.132" width="7" height="2" rx="1" ry="1" fill="#000" stroke="none" transform="matrix(0.70710678,-0.70710678,0.70710678,0.70710678,0,0)" />
    </g>
</svg>
