<?xml version="1.0" encoding="UTF-8" standalone="no"?>
<svg xmlns="http://www.w3.org/2000/svg" version="1.1" width="24" height="24">
    <g transform="translate(0,-1028.3622)">
        <path d="M 9,2 C 8.446,2 8,2.446 8,3 L 6,3 C 4.892,3 4,3.892 4,5 l 0,14 c 0,1.108 0.892,2 2,2 l 4,0 0,-14 10,0 0,-2 C 20,3.892 19.108,3 18,3 L 16,3 C 16,2.446 15.554,2 15,2 Z" fill="#000" stroke="none" transform="translate(0,1028.3622)" />
        <path d="m 11,1036.3622 0,14 11,0 0,-14 z m 2,2 7,0 0,10 -7,0 z" fill="#000" stroke="none" />
    </g>
</svg>
