<?xml version="1.0" encoding="UTF-8" standalone="no"?>
<svg xmlns="http://www.w3.org/2000/svg" version="1.1" width="24" height="24">
    <g transform="translate(0,-1028.3622)">
        <path d="M 8 3 A 6 6 0 0 0 2 9 A 6 6 0 0 0 8 15 A 6 6 0 0 0 12.240234 13.240234 L 14.5 15.5 L 14 16 L 20 22 L 22 20 L 16 14 L 15.5 14.5 L 13.119141 12.119141 A 6 6 0 0 0 14 9 A 6 6 0 0 0 8 3 z M 8 5 A 4 4 0 0 1 12 9 A 4 4 0 0 1 8 13 A 4 4 0 0 1 4 9 A 4 4 0 0 1 8 5 z " fill="#000" stroke="none" transform="translate(0,1028.3622)" />
        <rect x="5" y="1035.36" width="1" height="1" fill="#000" stroke="none" />
        <rect x="7" y="1035.36" width="1" height="1" fill="#000" stroke="none" />
        <rect x="9" y="1035.36" width="1" height="1" fill="#000" stroke="none" />
        <rect x="10" y="1036.36" width="1" height="1" fill="#000" stroke="none" />
        <rect x="10" y="1038.36" width="1" height="1" fill="#000" stroke="none" />
        <rect x="8" y="1038.36" width="1" height="1" fill="#000" stroke="none" />
        <rect x="6" y="1038.36" width="1" height="1" fill="#000" stroke="none" />
        <rect x="5" y="1037.36" width="1" height="1" fill="#000" stroke="none" />
        <rect x="-11" y="1035.36" width="1" height="1" fill="#000" fill-opacity="0.25098041" stroke="none" transform="scale(-1,1)" />
        <rect x="-9" y="1035.36" width="1" height="1" fill="#000" fill-opacity="0.25098041" stroke="none" transform="scale(-1,1)" />
        <rect x="-7" y="1035.36" width="1" height="1" fill="#000" fill-opacity="0.25098041" stroke="none" transform="scale(-1,1)" />
        <rect x="-6" y="1036.36" width="1" height="1" fill="#000" fill-opacity="0.25098041" stroke="none" transform="scale(-1,1)" />
        <rect x="-6" y="1038.36" width="1" height="1" fill="#000" fill-opacity="0.25098041" stroke="none" transform="scale(-1,1)" />
        <rect x="-8" y="1038.36" width="1" height="1" fill="#000" fill-opacity="0.25098041" stroke="none" transform="scale(-1,1)" />
        <rect x="-10" y="1038.36" width="1" height="1" fill="#000" fill-opacity="0.25098041" stroke="none" transform="scale(-1,1)" />
        <rect x="-11" y="1037.36" width="1" height="1" fill="#000" fill-opacity="0.25098041" stroke="none" transform="scale(-1,1)" />
    </g>
</svg>
